<svg t="1715932474127" class="icon" viewBox="0 0 1024 1024" version="1.1" xmlns="http://www.w3.org/2000/svg" p-id="4490" width="200" height="200"><path d="M341.333333 202.666667m42.666667 0l256 0q42.666667 0 42.666667 42.666666l0 106.666667q0 42.666667-42.666667 42.666667l-256 0q-42.666667 0-42.666667-42.666667l0-106.666667q0-42.666667 42.666667-42.666666Z"  p-id="4491"></path><path d="M341.333333 480m42.666667 0l256 0q42.666667 0 42.666667 42.666667l0 106.666666q0 42.666667-42.666667 42.666667l-256 0q-42.666667 0-42.666667-42.666667l0-106.666666q0-42.666667 42.666667-42.666667Z"  p-id="4492"></path><path d="M874.666667 151.466667v38.4a12.8 12.8 0 0 1-12.8 12.8H162.133333a12.8 12.8 0 0 1-12.8-12.8V151.466667A12.8 12.8 0 0 1 162.133333 138.666667h699.733334a12.8 12.8 0 0 1 12.8 12.8z"  p-id="4493"></path></svg>