<svg t="1715933816906" class="icon" viewBox="0 0 1024 1024" version="1.1" xmlns="http://www.w3.org/2000/svg" p-id="7609" width="200" height="200"><path d="M874.666667 834.133333v38.4a12.8 12.8 0 0 1-12.8 12.8H162.133333a12.8 12.8 0 0 1-12.8-12.8v-38.4a12.8 12.8 0 0 1 12.8-12.8h699.733334a12.8 12.8 0 0 1 12.8 12.8zM874.666667 151.466667v38.4a12.8 12.8 0 0 1-12.8 12.8H162.133333a12.8 12.8 0 0 1-12.8-12.8v-38.4a12.8 12.8 0 0 1 12.8-12.8h699.733334a12.8 12.8 0 0 1 12.8 12.8z"  p-id="7610"></path><path d="M277.333333 170.666667H469.333333v682.666666H277.333333zM554.666667 170.666667h192v682.666666H554.666667z"  p-id="7611"></path></svg>