<svg t="1715934255949" class="icon" viewBox="0 0 1024 1024" version="1.1" xmlns="http://www.w3.org/2000/svg" p-id="8955" width="200" height="200"><path d="M277.333333 341.333333m42.666667 0l106.666667 0q42.666667 0 42.666666 42.666667l0 256q0 42.666667-42.666666 42.666667l-106.666667 0q-42.666667 0-42.666667-42.666667l0-256q0-42.666667 42.666667-42.666667Z"  p-id="8956"></path><path d="M554.666667 277.333333m42.666666 0l106.666667 0q42.666667 0 42.666667 42.666667l0 384q0 42.666667-42.666667 42.666667l-106.666667 0q-42.666667 0-42.666666-42.666667l0-384q0-42.666667 42.666666-42.666667Z"  p-id="8957"></path><path d="M874.666667 492.8v38.4a12.8 12.8 0 0 1-12.8 12.8H162.133333a12.8 12.8 0 0 1-12.8-12.8v-38.4a12.8 12.8 0 0 1 12.8-12.8h699.733334a12.8 12.8 0 0 1 12.8 12.8z"  p-id="8958"></path></svg>