<svg t="1715934332187" class="icon" viewBox="0 0 1024 1024" version="1.1" xmlns="http://www.w3.org/2000/svg" p-id="9104" width="200" height="200"><path d="M554.666667 213.333333m42.666666 0l106.666667 0q42.666667 0 42.666667 42.666667l0 256q0 42.666667-42.666667 42.666667l-106.666667 0q-42.666667 0-42.666666-42.666667l0-256q0-42.666667 42.666666-42.666667Z"  p-id="9105"></path><path d="M277.333333 213.333333m42.666667 0l106.666667 0q42.666667 0 42.666666 42.666667l0 384q0 42.666667-42.666666 42.666667l-106.666667 0q-42.666667 0-42.666667-42.666667l0-384q0-42.666667 42.666667-42.666667Z"  p-id="9106"></path><path d="M874.666667 194.133333v38.4a12.8 12.8 0 0 1-12.8 12.8H162.133333a12.8 12.8 0 0 1-12.8-12.8V194.133333A12.8 12.8 0 0 1 162.133333 181.333333h699.733334a12.8 12.8 0 0 1 12.8 12.8z"  p-id="9107"></path></svg>