<svg t="1716369787406" class="icon" viewBox="0 0 1024 1024" version="1.1" xmlns="http://www.w3.org/2000/svg" p-id="9468" width="200" height="200"><path d="M955.1 129c-3-18.2-18.8-32.2-37.9-32.2-21.2 0-38.4 17.2-38.4 38.4v754.3l0.5 6.2c3 18.2 18.8 32.2 37.9 32.2 21.2 0 38.4-17.2 38.4-38.4V135.2l-0.5-6.2zM100 96.8c-21.2 0-38.4 17.2-38.4 38.4v754.3l0.5 6.2c3 18.2 18.8 32.2 37.9 32.2 21.2 0 38.4-17.2 38.4-38.4V135.2l-0.5-6.2c-3-18.2-18.8-32.2-37.9-32.2zM234.3 256.7h224v512h-224zM559.4 256.7h224v512h-224z" p-id="9469"></path></svg>