<svg t="1715933236800" class="icon" viewBox="0 0 1024 1024" version="1.1" xmlns="http://www.w3.org/2000/svg" p-id="6716" width="200" height="200"><path d="M352 341.333333m42.666667 0l106.666666 0q42.666667 0 42.666667 42.666667l0 256q0 42.666667-42.666667 42.666667l-106.666666 0q-42.666667 0-42.666667-42.666667l0-256q0-42.666667 42.666667-42.666667Z"  p-id="6717"></path><path d="M629.333333 341.333333m42.666667 0l106.666667 0q42.666667 0 42.666666 42.666667l0 256q0 42.666667-42.666666 42.666667l-106.666667 0q-42.666667 0-42.666667-42.666667l0-256q0-42.666667 42.666667-42.666667Z"  p-id="6718"></path><path d="M885.333333 162.133333v699.733334a12.8 12.8 0 0 1-12.8 12.8h-38.4a12.8 12.8 0 0 1-12.8-12.8V162.133333a12.8 12.8 0 0 1 12.8-12.8h38.4a12.8 12.8 0 0 1 12.8 12.8z"  p-id="6719"></path></svg>