<svg t="1715934043266" class="icon" viewBox="0 0 1024 1024" version="1.1" xmlns="http://www.w3.org/2000/svg" p-id="8206" width="200" height="200"><path d="M202.666667 341.333333m42.666666 0l106.666667 0q42.666667 0 42.666667 42.666667l0 256q0 42.666667-42.666667 42.666667l-106.666667 0q-42.666667 0-42.666666-42.666667l0-256q0-42.666667 42.666666-42.666667Z"  p-id="8207"></path><path d="M629.333333 341.333333m42.666667 0l106.666667 0q42.666667 0 42.666666 42.666667l0 256q0 42.666667-42.666666 42.666667l-106.666667 0q-42.666667 0-42.666667-42.666667l0-256q0-42.666667 42.666667-42.666667Z"  p-id="8208"></path><path d="M885.333333 162.133333v699.733334a12.8 12.8 0 0 1-12.8 12.8h-38.4a12.8 12.8 0 0 1-12.8-12.8V162.133333a12.8 12.8 0 0 1 12.8-12.8h38.4a12.8 12.8 0 0 1 12.8 12.8zM202.666667 162.133333v699.733334a12.8 12.8 0 0 1-12.8 12.8H151.466667a12.8 12.8 0 0 1-12.8-12.8V162.133333A12.8 12.8 0 0 1 151.466667 149.333333h38.4a12.8 12.8 0 0 1 12.8 12.8z"  p-id="8209"></path></svg>